<svg width="30" height="30" viewBox="0 0 30 30" fill="none" xmlns="http://www.w3.org/2000/svg">
<path d="M24.3909 11.5588C24.7814 11.1682 25.0911 10.7046 25.3024 10.1943C25.5137 9.6841 25.6224 9.13724 25.6224 8.58497C25.6223 8.03271 25.5135 7.48587 25.3021 6.97566C25.0907 6.46546 24.7809 6.00189 24.3904 5.61141C23.9998 5.22094 23.5362 4.91121 23.026 4.69992C22.5157 4.48862 21.9689 4.3799 21.4166 4.37995C20.8643 4.38 20.3175 4.48882 19.8073 4.70021C19.2971 4.9116 18.8335 5.22141 18.443 5.61195L14.1009 9.95368C13.3134 10.7428 12.8711 11.8121 12.8711 12.9269C12.8711 14.0418 13.3134 15.1111 14.1009 15.9002C14.371 16.1703 14.5228 16.5367 14.5228 16.9187C14.5228 17.3007 14.371 17.667 14.1009 17.9371C13.8308 18.2073 13.4644 18.359 13.0824 18.359C12.7004 18.359 12.3341 18.2073 12.0639 17.9372C10.737 16.6074 9.99173 14.8055 9.99173 12.9269C9.99173 11.0484 10.737 9.24648 12.0639 7.91672L16.4061 3.57499C17.7349 2.24603 19.5373 1.49936 21.4166 1.49927C22.3472 1.49922 23.2686 1.68246 24.1284 2.03852C24.9881 2.39459 25.7693 2.91651 26.4273 3.57448C27.0854 4.23245 27.6074 5.01359 27.9635 5.87329C28.3197 6.733 28.503 7.65443 28.5031 8.58499C28.5031 9.51555 28.3199 10.437 27.9638 11.2968C27.6077 12.1565 27.0858 12.9377 26.4279 13.5957L24.2771 15.7461C24.0069 16.0158 23.6406 16.1673 23.2588 16.1671C22.877 16.1669 22.5109 16.0152 22.241 15.7452C21.971 15.4753 21.8193 15.1091 21.8191 14.7273C21.8189 14.3455 21.9704 13.9793 22.2401 13.7091L24.3909 11.5588ZM3.57216 26.4281C4.9023 27.7549 6.70436 28.5 8.5831 28.4999C10.4618 28.4999 12.2639 27.7547 13.5939 26.4278L17.9359 22.0864C18.594 21.4285 19.116 20.6474 19.4721 19.7877C19.8282 18.9281 20.0115 18.0067 20.0115 17.0762C20.0115 16.1457 19.8282 15.2243 19.4721 14.3646C19.116 13.5049 18.594 12.7238 17.9359 12.0659C17.6657 11.7962 17.2995 11.6448 16.9177 11.6449C16.5359 11.6451 16.1698 11.7968 15.8998 12.0668C15.6298 12.3368 15.4781 12.7029 15.478 13.0847C15.4778 13.4665 15.6292 13.8327 15.899 14.1029C16.2895 14.4934 16.5993 14.9569 16.8107 15.4671C17.022 15.9773 17.1308 16.5241 17.1308 17.0763C17.1308 17.6285 17.022 18.1754 16.8107 18.6855C16.5993 19.1957 16.2895 19.6593 15.899 20.0497L11.557 24.3911C11.1665 24.7817 10.7029 25.0915 10.1927 25.3029C9.68253 25.5143 9.13568 25.6231 8.58342 25.6231C8.03116 25.6232 7.4843 25.5145 6.97406 25.3032C6.46381 25.0919 6.00018 24.7822 5.60964 24.3917C4.8209 23.6031 4.37774 22.5335 4.37763 21.4181C4.37758 20.8659 4.48631 20.319 4.6976 19.8088C4.9089 19.2985 5.21862 18.8349 5.6091 18.4443L7.75974 16.294C8.02949 16.0238 8.18092 15.6576 8.18077 15.2758C8.18061 14.894 8.02888 14.5279 7.75891 14.2579C7.48894 13.9879 7.12283 13.8362 6.74103 13.836C6.35923 13.8358 5.99299 13.9873 5.7228 14.257L3.57216 16.4074C2.24522 17.7372 1.5 19.5391 1.5 21.4177C1.5 23.2964 2.24522 25.0983 3.57216 26.4281Z" fill="#474747"/>
</svg>
