<svg xmlns="http://www.w3.org/2000/svg" width="92.001" height="61.33" viewBox="0 0 92.001 61.33"><defs><style>.a{fill:#8f9491;}</style></defs><path class="a" d="M7.044,972.362A2.045,2.045,0,0,0,5,974.406v57.242a2.045,2.045,0,0,0,2.044,2.044H94.957A2.045,2.045,0,0,0,97,1031.649V974.407a2.045,2.045,0,0,0-2.044-2.044Zm5.4,4.089H89.558L51,1010.534Zm-3.354,2.492,26.1,23.031-26.1,24.884Zm83.823,0v47.914l-26.1-24.884Zm-54.658,25.746,11.4,10.094a2.045,2.045,0,0,0,2.683,0l11.4-10.094L89.878,1029.6H12.124l26.131-24.915Z" transform="translate(-5 -972.362)"/></svg>