<svg xmlns="http://www.w3.org/2000/svg" width="77.082" height="75.18" viewBox="0 0 77.082 75.18"><defs><style>.a,.b{fill:#8f9491;}.a{fill-rule:evenodd;}</style></defs><g transform="translate(0 0)"><path class="a" d="M38.534,0A38.544,38.544,0,0,0,26.35,75.115c1.915.357,2.63-.836,2.63-1.857,0-.919-.032-3.951-.051-7.174-10.723,2.33-12.982-4.544-12.982-4.544-1.755-4.468-4.283-5.642-4.283-5.642-3.5-2.393.262-2.342.262-2.342,3.874.274,5.91,3.97,5.91,3.97,3.44,5.891,9.018,4.193,11.214,3.191A8.225,8.225,0,0,1,31.5,55.566C22.968,54.6,13.936,51.3,13.936,36.527a14.9,14.9,0,0,1,3.976-10.359,13.855,13.855,0,0,1,.37-10.212s3.236-1.034,10.6,3.951a36.61,36.61,0,0,1,19.307,0c7.327-4.959,10.588-3.951,10.588-3.951a13.881,13.881,0,0,1,.377,10.212A14.9,14.9,0,0,1,63.12,36.514c0,14.807-9.012,18.062-17.6,19.02,1.379,1.194,2.61,3.542,2.61,7.136,0,5.157-.038,9.312-.038,10.576,0,1.028.689,2.227,2.642,1.851A38.544,38.544,0,0,0,38.534,0Z" transform="translate(0.026 0)"/><path class="b" d="M22.3,86.332a.467.467,0,0,1-.638.121c-.255-.128-.44-.389-.351-.581a.47.47,0,0,1,.638-.121c.249.128.44.389.345.581Z" transform="translate(-7.683 -30.996)"/><path class="b" d="M24.748,88.825c-.185.172-.543.089-.791-.179a.587.587,0,0,1-.109-.8c.191-.172.536-.089.791.179S24.939,88.666,24.748,88.825Z" transform="translate(-8.571 -31.747)"/><path class="b" d="M27.114,92.164c-.236.166-.638,0-.862-.332s-.236-.753,0-.919.638,0,.862.326S27.35,92,27.114,92.164Z" transform="translate(-9.418 -32.865)"/><path class="b" d="M30.236,95.536a.721.721,0,0,1-1.015-.172c-.338-.313-.434-.753-.217-.983s.638-.172,1,.147.434.753.211.983Z" transform="translate(-10.434 -34.092)"/><path class="b" d="M34.544,97.743c-.1.3-.523.44-.964.313s-.721-.485-.638-.791.523-.447.964-.313S34.627,97.436,34.544,97.743Z" transform="translate(-11.895 -35.054)"/><path class="b" d="M39.463,98.262c0,.319-.357.581-.817.587s-.83-.243-.836-.562.357-.581.823-.587S39.463,97.949,39.463,98.262Z" transform="translate(-13.662 -35.343)"/><path class="b" d="M44.07,97.551c.057.313-.262.638-.715.715s-.862-.108-.919-.421.268-.638.715-.715S44.013,97.239,44.07,97.551Z" transform="translate(-15.333 -35.131)"/></g></svg>