<svg width="29" height="23" viewBox="0 0 29 23" fill="none" xmlns="http://www.w3.org/2000/svg">
<path d="M1.78528 3.4954H19.5786C20.5903 3.4954 21.3639 2.73806 21.3639 1.7477C21.3639 0.757336 20.5903 0 19.5786 0H1.78528C0.773622 0 0 0.757336 0 1.7477C0 2.73806 0.773622 3.4954 1.78528 3.4954Z" fill="black"/>
<path d="M19.5191 19.3412H1.78528C0.773622 19.3412 0 20.0985 0 21.0889C0 22.0792 0.773622 22.8366 1.78528 22.8366H19.5786C20.5903 22.8366 21.3639 22.0792 21.3639 21.0889C21.3639 20.0985 20.5307 19.3412 19.5191 19.3412Z" fill="black"/>
<path d="M26.6602 9.67059H1.78528C0.773622 9.67059 0 10.4279 0 11.4183C0 12.4087 0.773622 13.166 1.78528 13.166H26.7197C27.7314 13.166 28.505 12.4087 28.505 11.4183C28.505 10.4279 27.6719 9.67059 26.6602 9.67059Z" fill="black"/>
</svg>
